# xmcd
#
# Track frame offsets: 
#        150
#        3311
#        18762
#        36103
#        50920
#        68020
#        82044
#        101740
#        119033
#        129750
#        147900
#        164129
#        178933
#        195490
#        213089
#        225171
#        243819
#        257648
#
# Disc length: 3580 seconds
#
# Revision: 0
# Processed by: cddbd v1.5.2PL0 Copyright (c) Steve Scherf et al.
# Submitted via: ExactAudioCopy v0.99pb5
#
DISCID=f10dfa12
DTITLE=Bulle - Äidinkielel
DYEAR=2010
DGENRE=Rap
TTITLE0=Oppitunti nro.1
TTITLE1=Gangsta Gangsta
TTITLE2=Sirkushupii (feat. Jontti and Shama)
TTITLE3=Pelin Henki
TTITLE4=Ennen
TTITLE5=Gettolintu
TTITLE6=Vapaa Maa
TTITLE7=Lähiöis
TTITLE8=Oppitunti nro.2
TTITLE9=Äidinkielel (feat. Huge L)
TTITLE10=Horo
TTITLE11=Jälkikätee
TTITLE12=Raffit Puffit (feat. Puppa J)
TTITLE13=Harmaat Arkeet
TTITLE14=Anna Mulle Ilta
TTITLE15=Ihmiset =Oikeus
TTITLE16=Päiväst Päivään
TTITLE17=Jälki-istunto
EXTD=
EXTT0=
EXTT1=
EXTT2=
EXTT3=
EXTT4=
EXTT5=
EXTT6=
EXTT7=
EXTT8=
EXTT9=
EXTT10=
EXTT11=
EXTT12=
EXTT13=
EXTT14=
EXTT15=
EXTT16=
EXTT17=
PLAYORDER=
